<svg version="1.1" id="Layer_1" xmlns="http://www.w3.org/2000/svg" xmlns:xlink="http://www.w3.org/1999/xlink" x="0px" y="0px"
	 width="100%" viewBox="0 0 512 512" enable-background="new 0 0 512 512" xml:space="preserve">
<path  opacity="1.000000" stroke="none" 
	d="
M272.000000,1.000000 
	C352.285309,1.000000 432.570587,1.000000 513.000000,1.000000 
	C513.000000,161.355942 513.000000,321.711945 512.531372,482.533966 
	C482.055817,482.966339 452.048981,482.932648 422.023651,482.440125 
	C421.947906,461.987823 421.890625,441.994354 421.906708,421.537231 
	C421.931152,393.382629 421.882233,365.691650 421.803406,337.648438 
	C418.218811,335.390137 414.724457,333.359711 411.098785,331.599792 
	C396.106598,324.322571 381.074615,317.127319 366.036865,309.935852 
	C366.016418,309.969757 366.090424,309.941620 366.002075,309.687683 
	C365.571045,309.608307 365.228333,309.782867 364.586060,309.975647 
	C363.887146,309.970490 363.487885,309.947083 363.034119,309.503784 
	C362.653107,307.178223 362.055115,305.274353 362.042114,303.366516 
	C361.916412,284.911682 361.888947,266.456207 361.799866,247.649948 
	C361.412964,246.949890 361.120026,246.479492 360.697540,246.269287 
	C344.384918,238.151382 328.083252,230.010651 311.715088,222.005936 
	C308.989014,220.672745 305.966705,219.945206 302.892944,218.557053 
	C302.469757,216.425949 302.031647,214.675812 302.029846,212.925201 
	C301.990723,174.491653 302.000000,136.058044 302.000000,97.624451 
	C302.000000,95.854568 302.000000,94.084686 302.000000,91.929520 
	C291.665680,91.929520 281.880524,91.929520 272.053955,91.466919 
	C272.008331,61.002880 272.004150,31.001440 272.000000,1.000000 
z"/>
<path opacity="1.000000" stroke="none" 
	d="
M1.000000,483.000000 
	C1.000000,322.429382 1.000000,161.858749 1.000000,1.000000 
	C81.022415,1.000000 161.045166,1.000000 241.533966,1.468657 
	C241.972443,31.930197 241.944870,61.923080 241.453461,91.953644 
	C231.418655,91.991333 221.847672,91.991333 212.000000,91.991333 
	C212.000000,112.467567 212.029007,132.372223 211.952728,152.276474 
	C211.945511,154.158218 211.276993,156.037445 210.550385,157.959625 
	C191.886841,167.095184 173.579620,176.171463 155.309982,185.322769 
	C154.114944,185.921371 153.207748,187.094604 152.093231,188.464081 
	C152.013199,215.673431 152.084137,242.419785 151.907822,269.164490 
	C151.884171,272.752258 150.612320,276.331787 149.597198,279.954163 
	C148.850784,280.051147 148.425644,280.109131 147.622101,280.096558 
	C145.292221,280.760284 143.260147,281.332092 141.402023,282.254364 
	C126.010063,289.894318 110.639923,297.578613 95.300941,305.324219 
	C94.109489,305.925873 93.204735,307.095276 92.092201,308.464172 
	C92.067085,336.622467 92.116493,364.317383 92.090424,392.474792 
	C91.993805,422.930267 91.972649,452.923218 91.487175,482.953156 
	C61.015240,482.993408 31.007620,482.996704 1.000000,483.000000 
z"/>
<path fill="#A0DEB0" opacity="1.000000" stroke="none" 
	d="
M1.000000,483.468658 
	C31.007620,482.996704 61.015240,482.993408 91.956512,482.979797 
	C132.119873,482.979645 171.349579,483.007172 210.579300,482.991425 
	C226.035889,482.985229 241.492462,482.882416 256.976807,482.911499 
	C257.004547,482.999390 257.062164,483.174500 257.046265,483.631958 
	C257.020233,493.726288 257.010101,503.363129 257.000000,513.000000 
	C171.666656,513.000000 86.333305,513.000000 1.000000,513.000000 
	C1.000000,503.241028 1.000000,493.589172 1.000000,483.468658 
z"/>
<path fill="#80D398" opacity="1.000000" stroke="none" 
	d="
M257.468628,513.000000 
	C257.010101,503.363129 257.020233,493.726288 257.506287,483.577759 
	C264.630768,483.044067 271.279358,483.007568 277.927917,483.002319 
	C325.965973,482.964325 374.004059,482.932617 422.042114,482.898926 
	C452.048981,482.932648 482.055817,482.966339 512.531372,483.000000 
	C513.000000,492.984680 513.000000,502.969360 513.000000,513.000000 
	C427.979126,513.000000 342.958221,513.000000 257.468628,513.000000 
z"/>
<path fill="#4895FF" opacity="1.000000" stroke="none" 
	d="
M271.533875,1.000000 
	C272.004150,31.001440 272.008331,61.002880 271.583252,91.485390 
	C266.463776,91.948814 261.773529,91.931168 257.062408,91.450729 
	C257.027679,60.991955 257.013824,30.995977 257.000000,1.000000 
	C261.689240,1.000000 266.378510,1.000000 271.533875,1.000000 
z"/>
<path fill="#6AA9FF" opacity="1.000000" stroke="none" 
	d="
M256.533875,1.000000 
	C257.013824,30.995977 257.027679,60.991955 257.021484,91.492691 
	C257.001404,91.997444 256.919067,92.080856 256.461731,92.054649 
	C251.308716,91.990952 246.613022,91.953453 241.917313,91.915962 
	C241.944870,61.923080 241.972443,31.930197 242.000000,1.468657 
	C246.689255,1.000000 251.378494,1.000000 256.533875,1.000000 
z"/>
<path fill="#6AA9FF" opacity="1.000000" stroke="none" 
	d="
M257.042358,91.955482 
	C261.773529,91.931168 266.463776,91.948814 271.624695,91.947990 
	C281.880524,91.929520 291.665680,91.929520 302.000000,91.929520 
	C302.000000,94.084686 302.000000,95.854568 302.000000,97.624451 
	C302.000000,136.058044 301.990723,174.491653 302.029846,212.925201 
	C302.031647,214.675812 302.469757,216.425949 302.684631,218.698029 
	C302.457062,219.480530 302.249420,219.741318 302.031403,220.470520 
	C301.986237,277.988190 301.951477,335.037445 301.453827,392.063721 
	C286.329956,392.037872 271.668976,392.035004 257.002014,392.017700 
	C256.996063,392.003204 256.987366,391.974335 256.991516,391.508179 
	C256.997131,343.047974 257.009674,295.053955 256.996979,247.059906 
	C256.983337,195.400223 256.946045,143.740540 256.919067,92.080856 
	C256.919067,92.080856 257.001404,91.997444 257.042358,91.955482 
z"/>
<path fill="#9ABADB" opacity="1.000000" stroke="none" 
	d="
M257.007996,392.032166 
	C271.668976,392.035004 286.329956,392.037872 301.481201,392.523865 
	C301.981995,401.158325 302.123016,409.312561 301.941681,417.459595 
	C301.864227,420.940338 303.076141,422.086395 306.545197,422.055908 
	C325.008484,421.893494 343.473419,421.922455 362.410858,421.919373 
	C382.533722,421.969299 402.183533,421.985077 421.833313,422.000854 
	C421.890625,441.994354 421.947906,461.987823 422.023651,482.440125 
	C374.004059,482.932617 325.965973,482.964325 277.927917,483.002319 
	C271.279358,483.007568 264.630768,483.044067 257.522186,483.120300 
	C257.062164,483.174500 257.004547,482.999390 256.992920,482.459351 
	C256.990204,451.956940 256.999084,421.994568 257.007996,392.032166 
z"/>
<path fill="#4895FF" opacity="1.000000" stroke="none" 
	d="
M361.937805,421.885162 
	C343.473419,421.922455 325.008484,421.893494 306.545197,422.055908 
	C303.076141,422.086395 301.864227,420.940338 301.941681,417.459595 
	C302.123016,409.312561 301.981995,401.158325 301.944092,392.546875 
	C301.951477,335.037445 301.986237,277.988190 302.381653,220.535934 
	C320.096558,228.723129 337.431885,237.352051 354.829041,245.854416 
	C356.995972,246.913437 359.490601,247.301804 361.833405,248.000931 
	C361.888947,266.456207 361.916412,284.911682 362.042114,303.366516 
	C362.055115,305.274353 362.653107,307.178223 362.776917,309.837585 
	C362.382782,312.725830 362.027740,314.860168 362.024384,316.994995 
	C361.969269,351.958344 361.958557,386.921753 361.937805,421.885162 
z"/>
<path fill="#6AA9FF" opacity="1.000000" stroke="none" 
	d="
M362.410858,421.919373 
	C361.958557,386.921753 361.969269,351.958344 362.024384,316.994995 
	C362.027740,314.860168 362.382782,312.725830 362.831390,310.257477 
	C363.487885,309.947083 363.887146,309.970490 364.887390,309.983154 
	C365.689026,309.962158 365.889709,309.951904 366.090424,309.941620 
	C366.090424,309.941620 366.016418,309.969757 366.115326,310.272522 
	C367.199921,311.410889 368.067291,312.481171 369.189117,313.046722 
	C384.956757,320.995819 400.743286,328.908051 416.577332,336.723694 
	C418.155060,337.502411 420.073151,337.591492 421.833282,338.000671 
	C421.882233,365.691650 421.931152,393.382629 421.906738,421.537231 
	C402.183533,421.985077 382.533722,421.969299 362.410858,421.919373 
z"/>
<path fill="#4895FF" opacity="1.000000" stroke="none" 
	d="
M361.799866,247.649948 
	C359.490601,247.301804 356.995972,246.913437 354.829041,245.854416 
	C337.431885,237.352051 320.096558,228.723129 302.392090,220.067505 
	C302.249420,219.741318 302.457062,219.480530 302.872986,219.078766 
	C305.966705,219.945206 308.989014,220.672745 311.715088,222.005936 
	C328.083252,230.010651 344.384918,238.151382 360.697540,246.269287 
	C361.120026,246.479492 361.412964,246.949890 361.799866,247.649948 
z"/>
<path fill="#6AA9FF" opacity="1.000000" stroke="none" 
	d="
M421.803406,337.648438 
	C420.073151,337.591492 418.155060,337.502411 416.577332,336.723694 
	C400.743286,328.908051 384.956757,320.995819 369.189117,313.046722 
	C368.067291,312.481171 367.199921,311.410889 366.135742,310.238647 
	C381.074615,317.127319 396.106598,324.322571 411.098785,331.599792 
	C414.724457,333.359711 418.218811,335.390137 421.803406,337.648438 
z"/>
<path fill="#6AA9FF" opacity="1.000000" stroke="none" 
	d="
M366.002075,309.687683 
	C365.889709,309.951904 365.689026,309.962158 365.187012,309.964935 
	C365.228333,309.782867 365.571045,309.608307 366.002075,309.687683 
z"/>
<path fill="#BBDCFF" opacity="1.000000" stroke="none" 
	d="
M257.002014,392.017700 
	C256.999084,421.994568 256.990204,451.956940 256.965179,482.371490 
	C241.492462,482.882416 226.035889,482.985229 210.579300,482.991425 
	C171.349579,483.007172 132.119873,482.979645 92.420822,482.942810 
	C91.972649,452.923218 91.993805,422.930267 92.548569,392.471985 
	C112.740318,391.967316 132.398438,391.927948 152.520630,391.921265 
	C172.637939,391.931610 192.291183,391.909302 212.415741,391.916382 
	C227.587158,391.955322 242.287262,391.964813 256.987366,391.974335 
	C256.987366,391.974335 256.996063,392.003204 257.002014,392.017700 
z"/>
<path fill="#7ED8F6" opacity="1.000000" stroke="none" 
	d="
M256.991516,391.508179 
	C242.287262,391.964813 227.587158,391.955322 212.432190,391.458679 
	C211.962631,313.982849 211.947922,236.994125 211.830017,159.733627 
	C211.456375,158.947174 211.185928,158.432510 210.915482,157.917831 
	C211.276993,156.037445 211.945511,154.158218 211.952728,152.276474 
	C212.029007,132.372223 212.000000,112.467567 212.000000,91.991333 
	C221.847672,91.991333 231.418655,91.991333 241.453461,91.953644 
	C246.613022,91.953453 251.308716,91.990952 256.461731,92.054649 
	C256.946045,143.740540 256.983337,195.400223 256.996979,247.059906 
	C257.009674,295.053955 256.997131,343.047974 256.991516,391.508179 
z"/>
<path fill="#6AA9FF" opacity="1.000000" stroke="none" 
	d="
M211.933228,160.005402 
	C211.947922,236.994125 211.962631,313.982849 211.960892,391.429291 
	C192.291183,391.909302 172.637939,391.931610 152.503815,391.463409 
	C152.015244,356.196198 152.046005,321.419312 151.910660,286.643097 
	C151.901917,284.397888 150.612274,282.157684 149.918488,279.915131 
	C150.612320,276.331787 151.884171,272.752258 151.907822,269.164490 
	C152.084137,242.419785 152.013199,215.673431 152.473724,188.458694 
	C154.810638,187.396439 156.801392,187.024918 158.558029,186.171494 
	C166.351044,182.385468 174.053574,178.413620 181.832886,174.598801 
	C191.844330,169.689453 201.897842,164.865921 211.933228,160.005402 
z"/>
<path fill="#7ED8F6" opacity="1.000000" stroke="none" 
	d="
M149.597198,279.954163 
	C150.612274,282.157684 151.901917,284.397888 151.910660,286.643097 
	C152.046005,321.419312 152.015244,356.196198 152.039749,391.430725 
	C132.398438,391.927948 112.740318,391.967316 92.624046,392.009491 
	C92.116493,364.317383 92.067085,336.622467 92.472748,308.458740 
	C94.505745,307.548889 96.201134,307.344940 97.643555,306.630371 
	C113.396851,298.826202 129.122604,290.966003 144.811905,283.034119 
	C146.043198,282.411621 146.945374,281.138092 148.000519,280.167114 
	C148.425644,280.109131 148.850784,280.051147 149.597198,279.954163 
z"/>
<path fill="#6AA9FF" opacity="1.000000" stroke="none" 
	d="
M211.830017,159.733643 
	C201.897842,164.865921 191.844330,169.689453 181.832886,174.598801 
	C174.053574,178.413620 166.351044,182.385468 158.558029,186.171494 
	C156.801392,187.024918 154.810638,187.396439 152.547150,187.995178 
	C153.207748,187.094604 154.114944,185.921371 155.309982,185.322769 
	C173.579620,176.171463 191.886841,167.095184 210.550385,157.959625 
	C211.185928,158.432510 211.456375,158.947174 211.830017,159.733643 
z"/>
<path fill="#7ED8F6" opacity="1.000000" stroke="none" 
	d="
M147.622101,280.096558 
	C146.945374,281.138092 146.043198,282.411621 144.811905,283.034119 
	C129.122604,290.966003 113.396851,298.826202 97.643555,306.630371 
	C96.201134,307.344940 94.505745,307.548889 92.547272,307.995392 
	C93.204735,307.095276 94.109489,305.925873 95.300941,305.324219 
	C110.639923,297.578613 126.010063,289.894318 141.402023,282.254364 
	C143.260147,281.332092 145.292221,280.760284 147.622101,280.096558 
z"/>
</svg>